<svg width="32" height="22" viewBox="0 0 32 22" fill="none" xmlns="http://www.w3.org/2000/svg">
<path d="M15.6373 16C18.4026 16 20.6443 13.7614 20.6443 11C20.6443 8.23858 18.4026 6 15.6373 6C12.872 6 10.6302 8.23858 10.6302 11C10.6302 13.7614 12.872 16 15.6373 16Z" stroke="#809EFF" stroke-width="2"/>
<path d="M29.3032 9.22333C29.9508 10.01 30.2745 10.4017 30.2745 11C30.2745 11.5983 29.9508 11.99 29.3032 12.7767C26.9332 15.65 21.7058 21 15.6373 21C9.56873 21 4.34137 15.65 1.97137 12.7767C1.32379 11.99 1 11.5983 1 11C1 10.4017 1.32379 10.01 1.97137 9.22333C4.34137 6.35 9.56873 1 15.6373 1C21.7058 1 26.9332 6.35 29.3032 9.22333Z" stroke="#809EFF" stroke-width="2"/>
</svg>
