<svg width="512" height="512" viewBox="0 0 512 512" fill="none" xmlns="http://www.w3.org/2000/svg">
<path d="M245.333 469.333V371.243L213.653 402.795L198.571 387.691L256 330.261L313.429 387.691L298.325 402.795L266.667 371.243V469.333H245.333ZM124.309 313.429L109.205 298.347L140.757 266.667H42.6667V245.333H140.757L109.205 213.653L124.309 198.571L181.739 256L124.309 313.429ZM387.691 313.429L330.261 256L387.691 198.571L402.795 213.675L371.243 245.333H469.333V266.667H371.243L402.795 298.347L387.691 313.429ZM256 276.928C250.126 276.928 245.17 274.908 241.131 270.869C237.092 266.844 235.072 261.888 235.072 256C235.072 250.112 237.092 245.156 241.131 241.131C245.17 237.092 250.126 235.072 256 235.072C261.874 235.072 266.83 237.092 270.869 241.131C274.909 245.17 276.928 250.126 276.928 256C276.928 261.874 274.909 266.83 270.869 270.869C266.83 274.908 261.874 276.928 256 276.928ZM256 181.739L198.571 124.309L213.675 109.205L245.333 140.757V42.6666H266.667V140.757L298.347 109.205L313.429 124.309L256 181.739Z" fill="white"/>
</svg>
